HIERARCHY
ROOT RootJoint
{
    OFFSET   0.000000   0.000000   0.000000
    CHANNELS 6 Xposition Yposition Zposition Xrotation Yrotation Zrotation
    JOINT pelvis_lowerback
    {
        OFFSET   0.000000   0.093605   0.000000
        CHANNELS 3 Xrotation Yrotation Zrotation
        JOINT lowerback_torso
        {
            OFFSET   0.000000   0.100000   0.000000
            CHANNELS 3 Xrotation Yrotation Zrotation
            JOINT torso_head
            {
                OFFSET   0.000000   0.282350   0.000000
                CHANNELS 3 Xrotation Yrotation Zrotation
                End Site
                {
                    OFFSET   0.000000   0.192650   0.000000
                }
            }
            JOINT rTorso_Clavicle
            {
                OFFSET  -0.001000   0.157500   0.000000
                CHANNELS 3 Xrotation Yrotation Zrotation
                JOINT rShoulder
                {
                    OFFSET  -0.117647   0.000000   0.000000
                    CHANNELS 3 Xrotation Yrotation Zrotation
                    JOINT rElbow
                    {
                        OFFSET  -0.245000   0.000000   0.000000
                        CHANNELS 3 Xrotation Yrotation Zrotation
                        JOINT rWrist
                        {
                            OFFSET  -0.240000   0.000000   0.000000
                            CHANNELS 3 Xrotation Yrotation Zrotation
                            End Site
                            {
                                OFFSET  -0.116353  -0.002500   0.000000
                            }
                        }
                    }
                }
            }
            JOINT lTorso_Clavicle
            {
                OFFSET   0.001000   0.157500   0.000000
                CHANNELS 3 Xrotation Yrotation Zrotation
                JOINT lShoulder
                {
                    OFFSET   0.117647   0.000000   0.000000
                    CHANNELS 3 Xrotation Yrotation Zrotation
                    JOINT lElbow
                    {
                        OFFSET   0.245000   0.000000   0.000000
                        CHANNELS 3 Xrotation Yrotation Zrotation
                        JOINT lWrist
                        {
                            OFFSET   0.240000   0.000000   0.000000
                            CHANNELS 3 Xrotation Yrotation Zrotation
                            End Site
                            {
                                OFFSET   0.116353  -0.002500   0.000000
                            }
                        }
                    }
                }
            }
        }
    }
    JOINT rHip
    {
        OFFSET  -0.100000  -0.051395   0.000000
        CHANNELS 3 Xrotation Yrotation Zrotation
        JOINT rKnee
        {
            OFFSET   0.000000  -0.410000   0.000000
            CHANNELS 3 Xrotation Yrotation Zrotation
            JOINT rAnkle
            {
                OFFSET   0.000000  -0.390000   0.000000
                CHANNELS 3 Xrotation Yrotation Zrotation
                JOINT rToeJoint
                {
                    OFFSET   0.000000  -0.050000   0.130000
                    CHANNELS 3 Xrotation Yrotation Zrotation
                    End Site
                    {
                        OFFSET  -0.010000   0.002000   0.060000
                    }
                }
            }
        }
    }
    JOINT lHip
    {
        OFFSET   0.100000  -0.051395   0.000000
        CHANNELS 3 Xrotation Yrotation Zrotation
        JOINT lKnee
        {
            OFFSET   0.000000  -0.410000   0.000000
            CHANNELS 3 Xrotation Yrotation Zrotation
            JOINT lAnkle
            {
                OFFSET   0.000000  -0.390000   0.000000
                CHANNELS 3 Xrotation Yrotation Zrotation
                JOINT lToeJoint
                {
                    OFFSET   0.000000  -0.050000   0.130000
                    CHANNELS 3 Xrotation Yrotation Zrotation
                    End Site
                    {
                        OFFSET   0.010000   0.002000   0.060000
                    }
                }
            }
        }
    }
}
MOTION
Frames: 10
Frame Time:   0.008333
 -2.393464   0.908346   3.870304  24.364517  -9.376659   4.730563  35.019118  -0.813109   1.683615   0.664269  -0.547429  -0.278734   2.502208  -0.396634  -3.434084  -4.883845  20.650762  -5.988660 -10.636506  23.512384  30.956190  -0.000054  37.684448   0.000007   3.067714   4.578844  -4.789807  -7.606204 -23.053267   4.875023  -2.887410 -26.660130 -23.052791   0.000007 -34.993751  -0.000086   8.243901  -7.760171   3.307887 -35.338987  -2.218828  -4.610296   7.167460  -0.000001  -0.000000   4.648227  -1.030414   2.904941  -0.763228  -0.000019  -0.000011 -31.197385   3.565428   7.043015   8.014057   0.000001   0.000000  -0.499573   5.269324  -2.100886   0.310988  -0.000000   0.000000
 -2.393496   0.908335   3.870225  24.380445  -9.381590   4.736397  34.982550  -0.809782   1.665494   0.671895  -0.552212  -0.298009   2.523503  -0.407359  -3.439080  -4.883136  20.637734  -6.010338 -10.640778  23.493641  30.939749  -0.000056  37.706372   0.000004   3.037007   4.565255  -4.712838  -7.610308 -23.023865   4.872396  -2.878778 -26.683911 -23.042209  -0.000010 -35.097403  -0.000099   8.225300  -7.758653   3.230297 -35.359856  -2.218636  -4.606657   7.164384  -0.000001   0.000000   4.653952  -1.024124   2.901563  -0.749125  -0.000015  -0.000009 -31.214061   3.582319   7.047677   8.003202   0.000001  -0.000001  -0.486799   5.258743  -2.111830   0.309110  -0.000000   0.000000
 -2.393521   0.908324   3.870147  24.395445  -9.386662   4.742491  34.946619  -0.806334   1.647685   0.677071  -0.556587  -0.318218   2.545097  -0.417636  -3.444418  -4.884108  20.626546  -6.033009 -10.645668  23.477026  30.922550  -0.000058  37.727305   0.000003   3.007881   4.553478  -4.638936  -7.616758 -22.996999   4.871917  -2.872183 -26.707517 -23.030157  -0.000032 -35.195990  -0.000111   8.208219  -7.767725   3.161356 -35.379162  -2.218084  -4.603761   7.159937  -0.000001   0.000000   4.660815  -1.017835   2.898109  -0.737751  -0.000012  -0.000007 -31.229498   3.598927   7.051431   7.992153   0.000001  -0.000002  -0.474060   5.248927  -2.122421   0.307195  -0.000000   0.000000
 -2.393541   0.908314   3.870074  24.409066  -9.391094   4.748142  34.911423  -0.803262   1.630279   0.679734  -0.560666  -0.337879   2.565537  -0.427242  -3.449614  -4.886232  20.616939  -6.055408 -10.651024  23.462123  30.905405  -0.000059  37.747152   0.000002   2.980177   4.543610  -4.570402  -7.624209 -22.972794   4.872708  -2.866795 -26.730170 -23.017559  -0.000054 -35.288416  -0.000122   8.192060  -7.779625   3.099682 -35.396745  -2.217637  -4.601450   7.155397  -0.000000   0.000001   4.667722  -1.012109   2.894681  -0.728560  -0.000010  -0.000005 -31.243694   3.614254   7.054553   7.981834   0.000001  -0.000002  -0.461996   5.239569  -2.132441   0.305327  -0.000000   0.000000
 -2.393556   0.908304   3.870005  24.421127  -9.394777   4.753193  34.876827  -0.800576   1.613371   0.680253  -0.564475  -0.356711   2.584621  -0.436210  -3.454561  -4.889042  20.608600  -6.077048 -10.656605  23.448681  30.888756  -0.000060  37.765923   0.000001   2.953771   4.535349  -4.506783  -7.632060 -22.950815   4.874244  -2.862238 -26.751690 -23.004930  -0.000074 -35.374863  -0.000130   8.176653  -7.792024   3.043429 -35.412455  -2.217410  -4.599669   7.151126  -0.000000   0.000001   4.674275  -1.007010   2.891372  -0.721119  -0.000008  -0.000004 -31.256487   3.628332   7.057132   7.972406   0.000001  -0.000002  -0.450770   5.230571  -2.141935   0.303497  -0.000000   0.000000
 -2.393567   0.908296   3.869943  24.431593  -9.397752   4.757625  34.842746  -0.798203   1.597005   0.678972  -0.567985  -0.374666   2.602354  -0.444581  -3.459241  -4.892224  20.601268  -6.097720 -10.662230  23.436492  30.872821  -0.000061  37.783640   0.000001   2.928572   4.528402  -4.447322  -7.639977 -22.930677   4.876235  -2.858282 -26.772004 -22.992545  -0.000091 -35.455645  -0.000135   8.161922  -7.804270   2.991426 -35.426261  -2.217417  -4.598379   7.147237  -0.000000   0.000001   4.680309  -1.002504   2.888209  -0.715071  -0.000006  -0.000004 -31.267806   3.641244   7.059221   7.963886   0.000001  -0.000003  -0.440438   5.221881  -2.150924   0.301706  -0.000001   0.000000
 -2.393574   0.908289   3.869887  24.440503  -9.400081   4.761464  34.809157  -0.796067   1.581200   0.676172  -0.571167  -0.391747   2.618791  -0.452391  -3.463658  -4.895582  20.594747  -6.117340 -10.667782  23.425388  30.857696  -0.000060  37.800332   0.000002   2.904504   4.522521  -4.391423  -7.647772 -22.912078   4.878518  -2.854775 -26.791085 -22.980546  -0.000105 -35.531093  -0.000139   8.147821  -7.816118   2.942936 -35.438217  -2.217649  -4.597554   7.143758  -0.000000   0.000001   4.685764  -0.998544   2.885200  -0.710129  -0.000005  -0.000003 -31.277666   3.653079   7.060852   7.956249   0.000001  -0.000003  -0.430993   5.213475  -2.159433   0.299952  -0.000001   0.000000
 -2.393587   0.908284   3.869853  24.434742  -9.409494   4.768646  34.787971  -0.790487   1.560981   0.676942  -0.572171  -0.413299   2.634456  -0.455226  -3.470401  -4.899582  20.579064  -6.138869 -10.681301  23.411442  30.858598  -0.000072  37.835568   0.000006   2.885994   4.512706  -4.332289  -7.647569 -22.891643   4.885906  -2.846952 -26.807428 -22.968041  -0.000116 -35.627815  -0.000142   8.132586  -7.820279   2.908594 -35.444719  -2.219696  -4.600147   7.160891  -0.000000  -0.000002   4.681083  -0.983625   2.890192  -0.708185  -0.000004  -0.000002 -31.268475   3.660724   7.059506   7.951001   0.000001  -0.000002  -0.426295   5.217640  -2.168483   0.298256  -0.000001   0.000000
 -2.393609   0.908280   3.869832  24.425466  -9.419217   4.774692  34.766741  -0.784277   1.542086   0.679108  -0.572132  -0.434576   2.649691  -0.457622  -3.477214  -4.902327  20.563246  -6.157889 -10.693480  23.398436  30.860926  -0.000078  37.869352   0.000009   2.868625   4.509973  -4.273248  -7.645825 -22.870969   4.891661  -2.838882 -26.822541 -22.958015  -0.000122 -35.719004  -0.000143   8.118484  -7.831987   2.874236 -35.448344  -2.221816  -4.601948   7.181887  -0.000000  -0.000004   4.673524  -0.968926   2.896006  -0.707268  -0.000003  -0.000002 -31.255862   3.668032   7.059142   7.948218   0.000001  -0.000001  -0.424204   5.221819  -2.176830   0.296839  -0.000000   0.000000
 -2.393638   0.908277   3.869819  24.414952  -9.428559   4.779596  34.745044  -0.777891   1.524505   0.680922  -0.571352  -0.454663   2.663771  -0.459820  -3.483620  -4.904234  20.548139  -6.174998 -10.704493  23.386225  30.863842  -0.000082  37.900949   0.000012   2.852081   4.508951  -4.214775  -7.643165 -22.850602   4.896241  -2.830744 -26.836170 -22.949617  -0.000125 -35.804038  -0.000142   8.105006  -7.844570   2.839037 -35.450069  -2.224092  -4.602785   7.203311  -0.000001  -0.000006   4.665090  -0.955123   2.901956  -0.707053  -0.000003  -0.000001 -31.242040   3.674860   7.059777   7.946418   0.000000  -0.000001  -0.423379   5.225552  -2.184427   0.295687  -0.000000   0.000000
